<svg width="165" height="88" viewBox="0 0 165 88" fill="none" xmlns="http://www.w3.org/2000/svg">
<path d="M5.95312 56.5283L10.2108 57.9117L9.28006 53.5327L5.95312 56.5283ZM106.854 35.4776C107.063 35.4331 107.197 35.2272 107.152 35.0178C107.108 34.8083 106.902 34.6746 106.692 34.7191L106.854 35.4776ZM9.44683 56.1821L106.854 35.4776L106.692 34.7191L9.28561 55.4236L9.44683 56.1821Z" fill="white"/>
<path d="M63.3989 50.946C63.1894 50.9905 63.0557 51.1964 63.1003 51.4058C63.1448 51.6153 63.3507 51.749 63.5601 51.7044L63.3989 50.946ZM159.646 30.8843L155.388 29.5009L156.319 33.8799L159.646 30.8843ZM63.5601 51.7044L156.314 31.989L156.152 31.2306L63.3989 50.946L63.5601 51.7044Z" fill="white"/>
<circle cx="85.3106" cy="43.443" r="23.3982" transform="rotate(78 85.3106 43.443)" stroke="white" stroke-width="0.775411"/>
<circle cx="90.5793" cy="66.5913" r="3.8366" transform="rotate(78 90.5793 66.5913)" stroke="white" stroke-width="0.775411"/>
<circle cx="80.6984" cy="20.106" r="3.8366" transform="rotate(78 80.6984 20.106)" stroke="white" stroke-width="0.775411"/>
</svg>
