<svg width="45" height="44" viewBox="0 0 45 44" fill="none" xmlns="http://www.w3.org/2000/svg">
<path fill-rule="evenodd" clip-rule="evenodd" d="M4.16699 22.0003C4.16699 11.8751 12.3751 3.66699 22.5003 3.66699C32.6255 3.66699 40.8337 11.8751 40.8337 22.0003C40.8337 32.1255 32.6255 40.3337 22.5003 40.3337C12.3751 40.3337 4.16699 32.1255 4.16699 22.0003ZM7.83366 22.0003C7.83366 13.9001 14.4001 7.33366 22.5003 7.33366C30.6005 7.33366 37.167 13.9001 37.167 22.0003C37.167 30.1005 30.6005 36.667 22.5003 36.667C14.4001 36.667 7.83366 30.1005 7.83366 22.0003ZM16.1059 17.9398C15.929 18.4219 15.765 18.8687 15.6284 19.1544C15.1832 20.085 15.9076 20.5947 16.5415 20.9095C17.1755 21.2244 19.1158 18.7567 19.1158 18.7567L21.354 20.3961C21.354 20.3961 21.6802 23.1141 22.2983 23.6044C22.9165 24.0947 24.1627 24.0947 24.1627 24.0947L26.5084 25.1733C26.5084 25.1733 25.9897 26.2184 26.1665 26.8128C26.3433 27.4071 27.2236 28.3817 27.2236 28.3817C27.2236 28.3817 25.5114 32.0744 26.1665 33.2294L27.7707 33.2294C28.4472 33.2294 32.7454 27.8722 32.5832 26.8128C32.421 25.7534 27.2236 24.9091 27.2236 24.9091C27.2236 24.9091 25.5345 24.2403 24.8834 23.5692C24.5624 23.2961 24.8834 22.7018 24.8834 22.7018C24.8834 22.7018 25.6404 23.0144 26.1815 22.7018C26.7226 22.3893 28.4472 20.6434 28.4472 20.6434C28.4472 20.6434 28.8109 21.1906 29.3749 20.3961C29.9388 19.6016 28.7329 17.8438 27.7707 17.8606C26.6887 17.8774 26.1815 19.4863 26.1815 19.4863L24.4512 18.448C24.4512 18.448 26.2199 17.9412 26.1815 17.1878C26.1431 16.4343 25.0838 15.2682 24.3052 15.5836C23.5266 15.899 24.1627 16.8636 24.1627 16.8636C22.9582 17.1878 21.6545 16.8636 21.6545 16.8636C21.6545 16.8636 20.4477 16.1866 19.3433 16.3098C18.6777 16.3841 18.5237 16.6636 18.4194 16.8527C18.3507 16.9775 18.3035 17.063 18.1457 17.0246C17.9192 16.9696 17.8454 16.6364 17.7718 16.3043C17.6918 15.9434 17.612 15.5836 17.3368 15.5836C16.9705 15.5836 16.5052 16.8515 16.1059 17.9398ZM27.6743 15.3085C26.1257 15.3085 22.4023 13.3404 23.0286 12.2823C23.0286 10.7692 26.9417 10.997 27.7817 10.997C28.6218 10.997 30.6774 11.6461 31.8198 12.5543C32.9622 13.4624 31.3392 14.7597 30.7714 15.3085C30.2036 15.8573 29.2228 15.3085 27.6743 15.3085Z" fill="url(#paint0_linear_632_1223)"/>
<defs>
<linearGradient id="paint0_linear_632_1223" x1="22.5003" y1="3.66699" x2="22.5003" y2="40.3337" gradientUnits="userSpaceOnUse">
<stop stop-color="#032B92"/>
<stop offset="0.482292" stop-color="white"/>
<stop offset="1" stop-color="#032B92"/>
</linearGradient>
</defs>
</svg>
