<svg width="113" height="113" viewBox="0 0 113 113" fill="none" xmlns="http://www.w3.org/2000/svg">
<path d="M57.3012 47.8638L58.8727 48.1575L68.1683 26.3806L60.3669 48.7364L61.7261 49.578L78.2608 32.6296L62.9103 50.6575L63.8737 51.9333L85.4143 42.1024L64.588 53.3677L65.0255 54.9054L88.6628 53.5197L65.1733 56.5009L65.0258 58.0928L87.5675 65.3395L64.5873 59.634L63.8747 61.0651L82.2765 75.9655L62.909 62.3439L61.7276 63.4209L73.5041 83.9625L60.3652 64.2644L58.8745 64.8419L62.4352 88.2506L57.2993 65.1364H55.7007L50.5648 88.2506L54.1255 64.8419L52.6348 64.2644L39.4959 83.9625L51.2724 63.4209L50.091 62.3439L30.7235 75.9655L49.1253 61.0651L48.4127 59.634L25.4324 65.3395L47.9742 58.0928L47.8267 56.5009L24.3372 53.5197L47.9745 54.9054L48.4121 53.3677L27.5857 42.1024L49.1263 51.9333L50.0897 50.6575L34.7392 32.6296L51.2739 49.578L52.6331 48.7364L44.8317 26.3806L54.1273 48.1575L55.6988 47.8638L56.5 24.1994L57.3012 47.8638Z" stroke="url(#paint0_linear_635_2189)" stroke-opacity="0.59" stroke-width="1.63768"/>
<defs>
<linearGradient id="paint0_linear_635_2189" x1="56.5" y1="0" x2="56.5" y2="113" gradientUnits="userSpaceOnUse">
<stop stop-color="white"/>
<stop offset="1" stop-color="white" stop-opacity="0"/>
</linearGradient>
</defs>
</svg>
