<svg width="77" height="77" viewBox="0 0 77 77" fill="none" xmlns="http://www.w3.org/2000/svg">
<circle cx="51.3336" cy="25.6666" r="25.2656" stroke="white" stroke-opacity="0.43" stroke-width="0.802082"/>
<circle cx="25.6666" cy="25.6666" r="25.2656" stroke="white" stroke-opacity="0.43" stroke-width="0.802082"/>
<circle cx="25.6666" cy="51.3336" r="25.2656" stroke="white" stroke-opacity="0.43" stroke-width="0.802082"/>
<circle cx="51.3336" cy="51.3336" r="25.2656" stroke="white" stroke-opacity="0.43" stroke-width="0.802082"/>
<path d="M24.8639 12.0312L20.8535 9.71584V14.3467L24.8639 12.0312ZM12.8327 12.4323H21.2545V11.6302H12.8327V12.4323ZM11.6296 51.3332V13.6354H10.8275V51.3332H11.6296ZM12.8327 11.6302C11.7252 11.6302 10.8275 12.528 10.8275 13.6354H11.6296C11.6296 12.9709 12.1682 12.4323 12.8327 12.4323V11.6302Z" fill="white" fill-opacity="0.43"/>
<path d="M11.2285 52.9379L8.91311 56.9483H13.5439L11.2285 52.9379ZM11.6296 64.9691V56.5472H10.8275V64.9691H11.6296ZM50.5305 66.1722H12.8327V66.9743H50.5305V66.1722ZM10.8275 64.9691C10.8275 66.0765 11.7252 66.9743 12.8327 66.9743V66.1722C12.1682 66.1722 11.6296 65.6335 11.6296 64.9691H10.8275Z" fill="white" fill-opacity="0.43"/>
<path d="M65.7705 25.6666L68.0859 21.6562H63.4551L65.7705 25.6666ZM65.3695 13.6354V22.0573H66.1715V13.6354H65.3695ZM26.4685 12.4323L64.1663 12.4323V11.6302L26.4685 11.6302V12.4323ZM66.1715 13.6354C66.1715 12.528 65.2738 11.6302 64.1663 11.6302V12.4323C64.8308 12.4323 65.3695 12.9709 65.3695 13.6354H66.1715Z" fill="white" fill-opacity="0.43"/>
<path d="M52.1351 66.5732L56.1455 68.8887V64.2578L52.1351 66.5732ZM64.1663 66.1722H55.7445V66.9743H64.1663V66.1722ZM65.3695 27.2712V64.9691H66.1715V27.2712H65.3695ZM64.1663 66.9743C65.2738 66.9743 66.1715 66.0765 66.1715 64.9691H65.3695C65.3695 65.6335 64.8308 66.1722 64.1663 66.1722V66.9743Z" fill="white" fill-opacity="0.43"/>
</svg>
