<svg width="228" height="27" viewBox="0 0 228 27" fill="none" xmlns="http://www.w3.org/2000/svg">
<path d="M56.3753 0.879883V4.27983H40.8946V11.8939H55.4667V15.298H40.8946V23.5953H57.0268V26.9993H36.7158V0.879883H56.3753Z" fill="white"/>
<path d="M136.867 0.930664V4.32811H122.263V11.9193H136.055V15.3167H122.263V26.9995H118.032V0.930664H136.867Z" fill="white"/>
<path d="M84.8371 0.879883V4.27983H75.5576V26.9993H71.3452V4.27983H62.0264V0.879883H84.8371Z" fill="white"/>
<path d="M164.019 23.1588L163.568 19.6201C163.269 17.065 161.952 15.5385 159.539 15.0243V14.9508C160.955 14.6197 162.2 13.8018 163.042 12.6488C163.796 11.5917 164.171 9.76313 164.171 8.37541C164.171 5.89382 163.328 4.03264 161.686 2.71838C160.103 1.49392 157.922 0.930664 155.21 0.930664H143.311V4.33875H147.429H154.659C156.541 4.33875 157.897 4.66527 158.798 5.35914C159.64 6.01626 160.061 7.0734 160.061 8.53459C160.061 9.92232 159.61 11.6039 158.747 12.3345C157.884 13.0651 156.486 13.4651 154.68 13.4651H147.429V13.4039H143.323V26.9995H147.429V16.8487H154.696C156.238 16.8487 157.408 17.1385 158.233 17.7956C159.059 18.4528 159.497 19.4731 159.665 20.9343L160.006 23.5588C160.154 25.02 160.533 26.1873 161.173 26.9873H165.615C164.654 25.9212 164.092 24.5725 164.019 23.1588Z" fill="white"/>
<path d="M29.8415 22.3037H25.623V26.9993H29.8415V22.3037Z" fill="#8D8A8A"/>
<path d="M29.8415 0.879883H25.623V19.2222H29.8415V0.879883Z" fill="white"/>
<path d="M24.4966 0.879883L14.84 21.8033H14.7224L5.02651 0.879883H0V26.9993H4.24683V8.34258H4.40364L12.9322 26.9993H16.591L28.7478 0.879883H24.4966Z" fill="white"/>
<path d="M100.424 0.930664H96.2236L106.555 26.9995H111.093L100.424 0.930664Z" fill="white"/>
<path d="M96.7605 13.5041H94.7498V13.5H90.455L84.8242 26.9999H89.3968L93.4094 16.878H98.2068L96.7605 13.5041Z" fill="#8D8A8A"/>
<path d="M187.519 0.930664H183.459L193.446 26.9995H197.833L187.519 0.930664Z" fill="white"/>
<path d="M183.553 13.5041H181.617V13.5H177.481L172.059 26.9999H176.462L180.326 16.878H184.946L183.553 13.5041Z" fill="#8D8A8A"/>
<path d="M223.573 2.36919C225.576 3.93235 226.872 6.17218 227.192 8.62385H223.155C222.698 6.87683 221.822 5.56656 220.529 4.73013C219.235 3.8937 217.634 3.49403 215.655 3.49403C212.726 3.49403 210.518 4.44171 209.03 6.37826C207.624 8.12116 206.938 10.5233 206.938 13.5435C206.938 16.6709 207.624 19.0689 208.996 20.7788C210.433 22.5945 212.679 23.5037 215.732 23.5065C217.5 23.5717 219.241 23.073 220.679 22.0891C222.051 21.07 223.003 19.5427 223.535 17.5073H227.572C226.964 20.5234 225.553 22.8884 223.306 24.5984C221.164 26.2131 218.499 27.0614 215.771 26.9964C211.316 26.9964 207.965 25.6161 205.722 22.9255C203.742 20.5975 202.789 17.4702 202.789 13.5435C202.789 9.68689 203.777 6.53896 205.834 4.12033C208.12 1.35971 211.394 0 215.754 0C218.894 0.00412033 221.533 0.766381 223.573 2.36919Z" fill="white"/>
<path d="M226.085 10.2412H213.693V14.4308H226.085V10.2412Z" fill="#8D8A8A"/>
</svg>
