<svg width="239" height="238" viewBox="0 0 239 238" fill="none" xmlns="http://www.w3.org/2000/svg">
<g filter="url(#filter0_dd_635_1310)">
<circle cx="119.492" cy="118.968" r="11.6897" transform="rotate(33 119.492 118.968)" fill="#978F8F"/>
<circle cx="119.492" cy="118.968" r="21.1528" transform="rotate(33 119.492 118.968)" stroke="white" stroke-width="1.1133"/>
<circle cx="119.492" cy="118.968" r="32.0075" transform="rotate(33 119.492 118.968)" stroke="white" stroke-width="1.1133"/>
<circle cx="119.492" cy="118.968" r="42.0273" transform="rotate(33 119.492 118.968)" stroke="white" stroke-width="1.1133"/>
<circle cx="119.491" cy="118.969" r="52.882" transform="rotate(33 119.491 118.969)" stroke="white" stroke-width="1.1133"/>
<circle cx="119.492" cy="118.969" r="63.7367" transform="rotate(33 119.492 118.969)" stroke="white" stroke-width="1.1133"/>
<circle cx="119.492" cy="118.968" r="75.4264" transform="rotate(33 119.492 118.968)" stroke="white" stroke-width="1.1133"/>
<circle cx="119.492" cy="118.969" r="85.4462" transform="rotate(33 119.492 118.969)" stroke="white" stroke-width="1.1133"/>
<circle cx="148.171" cy="74.9879" r="2.97327" transform="rotate(33 148.171 74.9879)" fill="#310000" fill-opacity="0.99" stroke="white" stroke-width="1.48664"/>
<circle cx="141.187" cy="142.466" r="2.97327" transform="rotate(33 141.187 142.466)" fill="#310000" fill-opacity="0.99" stroke="white" stroke-width="1.48664"/>
<circle cx="66.813" cy="82.2203" r="2.97327" transform="rotate(33 66.813 82.2203)" fill="#310000" fill-opacity="0.99" stroke="white" stroke-width="1.48664"/>
<circle cx="172.132" cy="173.514" r="2.97327" transform="rotate(33 172.132 173.514)" fill="#310000" fill-opacity="0.99" stroke="white" stroke-width="1.48664"/>
</g>
<defs>
<filter id="filter0_dd_635_1310" x="31.404" y="32.9561" width="176.176" height="176.175" filterUnits="userSpaceOnUse" color-interpolation-filters="sRGB">
<feFlood flood-opacity="0" result="BackgroundImageFix"/>
<feColorMatrix in="SourceAlpha" type="matrix" values="0 0 0 0 0 0 0 0 0 0 0 0 0 0 0 0 0 0 127 0" result="hardAlpha"/>
<feOffset dy="2.07497"/>
<feGaussianBlur stdDeviation="1.03749"/>
<feComposite in2="hardAlpha" operator="out"/>
<feColorMatrix type="matrix" values="0 0 0 0 0 0 0 0 0 0 0 0 0 0 0 0 0 0 0.25 0"/>
<feBlend mode="normal" in2="BackgroundImageFix" result="effect1_dropShadow_635_1310"/>
<feColorMatrix in="SourceAlpha" type="matrix" values="0 0 0 0 0 0 0 0 0 0 0 0 0 0 0 0 0 0 127 0" result="hardAlpha"/>
<feOffset dy="2.07497"/>
<feGaussianBlur stdDeviation="1.03749"/>
<feComposite in2="hardAlpha" operator="out"/>
<feColorMatrix type="matrix" values="0 0 0 0 0 0 0 0 0 0 0 0 0 0 0 0 0 0 0.25 0"/>
<feBlend mode="normal" in2="effect1_dropShadow_635_1310" result="effect2_dropShadow_635_1310"/>
<feBlend mode="normal" in="SourceGraphic" in2="effect2_dropShadow_635_1310" result="shape"/>
</filter>
</defs>
</svg>
