<svg width="45" height="44" viewBox="0 0 45 44" fill="none" xmlns="http://www.w3.org/2000/svg">
<path fill-rule="evenodd" clip-rule="evenodd" d="M22.5003 7.33301C13.4498 7.33301 5.90032 13.6315 4.16699 21.9997C5.90032 30.3679 13.4498 36.6663 22.5003 36.6663C31.5509 36.6663 39.1003 30.3679 40.8337 21.9997C39.1003 13.6315 31.5509 7.33301 22.5003 7.33301ZM31.667 21.9997C31.667 27.0623 27.5629 31.1663 22.5003 31.1663C17.4377 31.1663 13.3337 27.0623 13.3337 21.9997C13.3337 16.9371 17.4377 12.833 22.5003 12.833C27.5629 12.833 31.667 16.9371 31.667 21.9997ZM22.5002 27.4998C25.5377 27.4998 28.0002 25.0374 28.0002 21.9998C28.0002 18.9623 25.5377 16.4998 22.5002 16.4998C19.4626 16.4998 17.0002 18.9623 17.0002 21.9998C17.0002 25.0374 19.4626 27.4998 22.5002 27.4998Z" fill="url(#paint0_linear_632_1225)"/>
<defs>
<linearGradient id="paint0_linear_632_1225" x1="22.5003" y1="7.33301" x2="22.5003" y2="36.6663" gradientUnits="userSpaceOnUse">
<stop stop-color="#032B92"/>
<stop offset="0.544792" stop-color="white"/>
<stop offset="1" stop-color="#032B92"/>
</linearGradient>
</defs>
</svg>
