<svg width="69" height="192" viewBox="0 0 69 192" fill="none" xmlns="http://www.w3.org/2000/svg">
<path d="M29.9688 191.898L32.9753 186.691H26.9622L29.9688 191.898ZM30.4895 64.8352C30.4895 64.5476 30.2564 64.3144 29.9688 64.3144C29.6811 64.3144 29.448 64.5476 29.448 64.8352H30.4895ZM30.4895 187.212L30.4895 64.8352H29.448L29.448 187.212H30.4895Z" fill="white"/>
<path d="M37.9192 121.199C37.9192 121.487 38.1523 121.72 38.4399 121.72C38.7276 121.72 38.9607 121.487 38.9607 121.199L37.9192 121.199ZM38.4399 0.000411987L35.4334 5.20795L41.4465 5.20795L38.4399 0.000411987ZM38.9607 121.199L38.9607 4.6872L37.9192 4.6872L37.9192 121.199L38.9607 121.199Z" fill="white"/>
<circle cx="34.5298" cy="92.8545" r="28.8015" stroke="white" stroke-width="1.04151"/>
<circle cx="63.7925" cy="92.4341" r="4.68679" stroke="white" stroke-width="1.04151"/>
<circle cx="5.20755" cy="92.4341" r="4.68679" stroke="white" stroke-width="1.04151"/>
</svg>
