<svg width="45" height="44" viewBox="0 0 45 44" fill="none" xmlns="http://www.w3.org/2000/svg">
<path fill-rule="evenodd" clip-rule="evenodd" d="M37.0535 23.8337C36.2262 30.468 30.968 35.7262 24.3337 36.5535V40.3337H20.667V36.5535C14.0327 35.7262 8.77442 30.468 7.94713 23.8337H4.16699V20.167H7.94713C8.77442 13.5327 14.0327 8.27442 20.667 7.44713V3.66699H24.3337V7.44713C30.968 8.27442 36.2262 13.5327 37.0535 20.167H40.8337V23.8337H37.0535ZM22.5003 33.0003C28.5755 33.0003 33.5003 28.0755 33.5003 22.0003C33.5003 15.9252 28.5755 11.0003 22.5003 11.0003C16.4252 11.0003 11.5003 15.9252 11.5003 22.0003C11.5003 28.0755 16.4252 33.0003 22.5003 33.0003ZM28.0003 22.0003C28.0003 25.0379 25.5379 27.5003 22.5003 27.5003C19.4628 27.5003 17.0003 25.0379 17.0003 22.0003C17.0003 18.9628 19.4628 16.5003 22.5003 16.5003C25.5379 16.5003 28.0003 18.9628 28.0003 22.0003Z" fill="url(#paint0_linear_632_1226)"/>
<defs>
<linearGradient id="paint0_linear_632_1226" x1="22.5003" y1="3.66699" x2="22.5003" y2="40.3337" gradientUnits="userSpaceOnUse">
<stop stop-color="white"/>
<stop offset="1" stop-color="#032B92"/>
</linearGradient>
</defs>
</svg>
