<svg width="108" height="108" viewBox="0 0 108 108" fill="none" xmlns="http://www.w3.org/2000/svg">
<path d="M54.7657 45.7459L56.2677 46.0267L65.152 25.2133L57.6958 46.5799L58.9949 47.3843L74.7979 31.1858L60.1266 48.416L61.0474 49.6354L81.6349 40.2394L61.7301 51.0063L62.1482 52.4759L84.7396 51.1516L62.2895 54.0009L62.1485 55.5223L83.6929 62.4483L61.7294 56.9953L61.0484 58.3631L78.6359 72.6042L60.1254 59.5853L58.9963 60.6147L70.2517 80.2474L57.6942 61.4209L56.2694 61.9728L59.6726 84.3458L54.764 62.2542H53.236L48.3274 84.3457L51.7306 61.9728L50.3058 61.4209L37.7483 80.2474L49.0037 60.6147L47.8746 59.5853L29.3641 72.6042L46.9516 58.3631L46.2706 56.9953L24.3071 62.4483L45.8515 55.5223L45.7105 54.0009L23.2604 51.1516L45.8518 52.4759L46.2699 51.0063L26.3651 40.2394L46.9526 49.6354L47.8734 48.416L33.2021 31.1858L49.0051 47.3843L50.3042 46.5799L42.848 25.2133L51.7323 46.0267L53.2343 45.7459L54 23.1287L54.7657 45.7459Z" stroke="white" stroke-opacity="0.43" stroke-width="1.56522"/>
</svg>
